<svg xmlns="http://www.w3.org/2000/svg" version="1.1" xmlns:xlink="http://www.w3.org/1999/xlink" xmlns:svgjs="http://svgjs.dev/svgjs" width="500" height="500" viewBox="0 0 500 500"><rect width="500" height="500" fill="#d5d5d5"></rect><g transform="matrix(0.7,0,0,0.7,74.78787878787878,140.09661290322578)"><svg viewBox="0 0 396 248" data-background-color="#d5d5d5" preserveAspectRatio="xMidYMid meet" height="313" width="500" xmlns="http://www.w3.org/2000/svg" xmlns:xlink="http://www.w3.org/1999/xlink"><g id="tight-bounds" transform="matrix(1,0,0,1,0.2400000000000091,0.4000000000000057)"><svg viewBox="0 0 395.52 247.2" height="247.2" width="395.52"><g><svg></svg></g><g><svg viewBox="0 0 395.52 247.2" height="247.2" width="395.52"><g><g><path d="M69.652 49.173l14.465 43.643h-15.632l-8.671-27.389-8.751 27.389-15.213 0 14.34-43.643zM119.27 198.882h-17.965l-14.095-44.498h17.312zM17.896 198.882h-16.896l14.621-44.498h16.168zM157.553 49.173l0 43.643-16.041 0v-43.643zM157.553 198.882h-16.041l0-44.498h16.041zM271.759 54.52l-3.422 14.329-12.404-3.635c-8.84-2.139-16.468-3.208-22.885-3.208-16.824 0-25.237 7.485-25.236 22.456 0 3.039 0.551 5.824 1.653 8.354l-17.039 0c-0.436-2.437-0.655-5.008-0.654-7.713 0-12.262 3.679-21.672 11.035-28.23 7.329-6.559 17.195-9.838 29.6-9.838 12.404 0 25.522 2.495 39.352 7.485zM282.666 155.253c0 14.115-4.349 25.123-13.046 33.021-8.697 7.927-21.031 11.891-36.999 11.891-7.984 0-15.997-1.183-24.039-3.55-8.07-2.338-14.671-5.076-19.805-8.213l5.347-12.19c12.975 5.988 25.279 8.983 36.914 8.982 11.606 0 20.446-2.353 26.52-7.057 6.045-4.705 9.068-11.549 9.068-20.532 0-1.103-0.072-2.177-0.216-3.221l16.249 0c0.005 0.288 0.008 0.578 0.007 0.869zM394.52 184.981v13.901h-80.201l0-44.498h16.04v30.597zM314.319 49.173h16.04v43.643h-16.04z" fill="#612b9a" fill-rule="nonzero" stroke="none" stroke-width="1" stroke-linecap="butt" stroke-linejoin="miter" stroke-miterlimit="10" stroke-dasharray="" stroke-dashoffset="0" font-family="none" font-weight="none" font-size="none" text-anchor="none" style="mix-blend-mode: normal" data-fill-palette-color="tertiary"></path></g></g><g transform="matrix(1,0,0,1,0,98.11183881915564)"><svg viewBox="0 0 395.52 50.976322361688716" height="50.976322361688716" width="395.52"><g><svg viewBox="0 0 395.52 50.976322361688716" height="50.976322361688716" width="395.52"><g transform="matrix(1,0,0,1,0,28.545247510203566)"><svg viewBox="0 0 395.52 22.431074851485146" height="22.431074851485146" width="395.52"><g id="textblocktransform"><svg viewBox="0 0 395.52 22.431074851485146" height="22.431074851485146" width="395.52" id="textblock"><g><svg viewBox="0 0 395.52 22.431074851485146" height="22.431074851485146" width="395.52"><g transform="matrix(1,0,0,1,0,0)"><svg width="395.52" viewBox="0.65 -35.5 631.19 35.8" height="22.431074851485146" data-palette-color="#9966cc"><path d="M16.7-35L28.3 0 24.1 0 20.6-11.05 8.05-11.05 4.6 0 0.65 0 12.15-35 16.7-35ZM9-14.3L19.75-14.3 14.4-31.2 9-14.3ZM63-35L63 0 59.25 0 59.25-28.7 48-9.2 46.7-9.25 35.45-28.65 35.45 0 31.75 0 31.75-35 35.95-35 47.4-15.75 59.25-35 63-35ZM89.2-3.25L89.2 0 70.34 0 70.34-35 89.2-35 89.2-31.75 74.09-31.75 74.09-20.65 87.95-20.65 87.95-17.3 74.09-17.3 74.09-3.25 89.2-3.25ZM107.39 0L103.69 0 103.69-31.65 93.89-31.65 93.89-35 117.09-35 117.09-31.65 107.39-31.65 107.39 0ZM146.74-35L146.74 0 142.99 0 142.99-16.55 126.39-16.55 126.39 0 122.64 0 122.64-35 126.39-35 126.39-19.8 142.99-19.8 142.99-35 146.74-35ZM174.19-35L178.24-35 166.74-15.75 166.74 0 162.99 0 162.99-15.75 151.94-35 156.09-35 164.94-18.8 174.19-35ZM201.04-33.75L201.04-33.75 200.24-30.4 197.34-31.25Q194.24-32 191.99-32L191.99-32Q186.09-32 186.09-26.75L186.09-26.75Q186.09-24.45 187.89-22.98 189.69-21.5 192.26-20.63 194.84-19.75 197.41-18.73 199.99-17.7 201.79-15.58 203.59-13.45 203.59-10.2L203.59-10.2Q203.59-5.25 200.54-2.48 197.49 0.3 191.89 0.3L191.89 0.3Q189.09 0.3 186.26-0.53 183.44-1.35 181.64-2.45L181.64-2.45 182.89-5.3Q187.44-3.2 191.51-3.2 195.59-3.2 197.71-4.85 199.84-6.5 199.84-9.65L199.84-9.65Q199.84-12.85 196.39-14.65L196.39-14.65Q194.84-15.45 192.96-16.15 191.09-16.85 189.21-17.68 187.34-18.5 185.81-19.55 184.29-20.6 183.31-22.4 182.34-24.2 182.34-26.6L182.34-26.6Q182.34-30.9 184.91-33.2 187.49-35.5 191.84-35.5 196.19-35.5 201.04-33.75ZM220.93 0L217.23 0 217.23-31.65 207.43-31.65 207.43-35 230.63-35 230.63-31.65 220.93-31.65 220.93 0ZM252.43-35L252.43 0 248.68 0 248.68-35 252.43-35ZM271.48 0L267.78 0 267.78-31.65 257.98-31.65 257.98-35 281.18-35 281.18-31.65 271.48-31.65 271.48 0ZM316.82-33.75L316.82-33.75 316.02-30.4 313.12-31.25Q310.02-32 307.77-32L307.77-32Q301.87-32 301.87-26.75L301.87-26.75Q301.87-24.45 303.67-22.98 305.47-21.5 308.05-20.63 310.62-19.75 313.2-18.73 315.77-17.7 317.57-15.58 319.37-13.45 319.37-10.2L319.37-10.2Q319.37-5.25 316.32-2.48 313.27 0.3 307.67 0.3L307.67 0.3Q304.87 0.3 302.05-0.53 299.22-1.35 297.42-2.45L297.42-2.45 298.67-5.3Q303.22-3.2 307.3-3.2 311.37-3.2 313.5-4.85 315.62-6.5 315.62-9.65L315.62-9.65Q315.62-12.85 312.17-14.65L312.17-14.65Q310.62-15.45 308.75-16.15 306.87-16.85 305-17.68 303.12-18.5 301.6-19.55 300.07-20.6 299.1-22.4 298.12-24.2 298.12-26.6L298.12-26.6Q298.12-30.9 300.7-33.2 303.27-35.5 307.62-35.5 311.97-35.5 316.82-33.75ZM338.37 0.25L338.37 0.25Q331.52 0.25 328.02-4.83 324.52-9.9 324.52-17.75 324.52-25.6 328.04-30.55 331.57-35.5 338.39-35.5 345.22-35.5 348.77-30.55 352.32-25.6 352.32-17.75L352.32-17.75Q352.32-7 346.22-2.25L346.22-2.25Q342.97 0.25 338.37 0.25ZM338.47-32.25L338.47-32.25Q333.37-32.25 330.84-28 328.32-23.75 328.32-17.6 328.32-11.45 330.89-7.25 333.47-3.05 338.47-3.05 343.47-3.05 346.02-7.3 348.57-11.55 348.57-18L348.57-18Q348.57-26.1 344.02-30.1L344.02-30.1Q341.67-32.25 338.47-32.25ZM377.92-3.25L377.92 0 359.17 0 359.17-35 362.92-35 362.92-3.25 377.92-3.25ZM403.84-3.03Q400.76 0.3 394.86 0.3 388.96 0.3 385.89-3.03 382.81-6.35 382.81-12.9L382.81-12.9 382.81-35 386.61-35 386.61-12.3Q386.61-7.85 388.74-5.4 390.86-2.95 394.79-2.95 398.71-2.95 400.91-5.38 403.11-7.8 403.11-12.3L403.11-12.3 403.11-35 406.91-35 406.91-12.9Q406.91-6.35 403.84-3.03ZM425.96 0L422.26 0 422.26-31.65 412.46-31.65 412.46-35 435.66-35 435.66-31.65 425.96-31.65 425.96 0ZM444.96-35L444.96 0 441.21 0 441.21-35 444.96-35ZM465.66 0.25L465.66 0.25Q458.81 0.25 455.31-4.83 451.81-9.9 451.81-17.75 451.81-25.6 455.33-30.55 458.86-35.5 465.68-35.5 472.51-35.5 476.06-30.55 479.61-25.6 479.61-17.75L479.61-17.75Q479.61-7 473.51-2.25L473.51-2.25Q470.26 0.25 465.66 0.25ZM465.76-32.25L465.76-32.25Q460.66-32.25 458.13-28 455.61-23.75 455.61-17.6 455.61-11.45 458.18-7.25 460.76-3.05 465.76-3.05 470.76-3.05 473.31-7.3 475.86-11.55 475.86-18L475.86-18Q475.86-26.1 471.31-30.1L471.31-30.1Q468.96-32.25 465.76-32.25ZM511.3-35L511.3 0.05 507.2 0.05 490.35-28 490.35 0 486.45 0 486.45-35 490.35-35 507.55-5.9 507.55-35 511.3-35ZM538-33.75L538-33.75 537.2-30.4 534.3-31.25Q531.2-32 528.95-32L528.95-32Q523.05-32 523.05-26.75L523.05-26.75Q523.05-24.45 524.85-22.98 526.65-21.5 529.23-20.63 531.8-19.75 534.38-18.73 536.95-17.7 538.75-15.58 540.55-13.45 540.55-10.2L540.55-10.2Q540.55-5.25 537.5-2.48 534.45 0.3 528.85 0.3L528.85 0.3Q526.05 0.3 523.23-0.53 520.4-1.35 518.6-2.45L518.6-2.45 519.85-5.3Q524.4-3.2 528.48-3.2 532.55-3.2 534.68-4.85 536.8-6.5 536.8-9.65L536.8-9.65Q536.8-12.85 533.35-14.65L533.35-14.65Q531.8-15.45 529.93-16.15 528.05-16.85 526.18-17.68 524.3-18.5 522.77-19.55 521.25-20.6 520.27-22.4 519.3-24.2 519.3-26.6L519.3-26.6Q519.3-30.9 521.88-33.2 524.45-35.5 528.8-35.5 533.15-35.5 538-33.75ZM579.19-3.25L579.19 0 560.44 0 560.44-35 564.19-35 564.19-3.25 579.19-3.25ZM591.29 0L587.59 0 587.59-31.65 577.79-31.65 577.79-35 600.99-35 600.99-31.65 591.29-31.65 591.29 0ZM631.84-18.75L631.84-18.75Q631.84-10.3 626.94-5.15 622.04 0 613.84 0L613.84 0 606.54 0 606.54-35 615.39-35Q622.84-35 627.34-30.45 631.84-25.9 631.84-18.75ZM627.79-19.15L627.79-19.15Q627.79-25.05 624.19-28.4 620.59-31.75 615.59-31.75L615.59-31.75 610.59-31.75 610.59-3.25 614.29-3.25Q619.94-3.25 623.86-7.5 627.79-11.75 627.79-19.15Z" opacity="1" transform="matrix(1,0,0,1,0,0)" fill="#9966cc" class="wordmark-text-0" data-fill-palette-color="primary" id="text-0"></path></svg></g></svg></g></svg></g></svg></g><g transform="matrix(1,0,0,1,173.97958659486582,0)"><svg viewBox="0 0 47.56082681026835 23.249809083564358" height="23.249809083564358" width="47.56082681026835"><g><svg xmlns="http://www.w3.org/2000/svg" xmlns:xlink="http://www.w3.org/1999/xlink" version="1.1" x="8" y="0" viewBox="5 16.9 90 66.30000000000001" enable-background="new 0 0 100 100" xml:space="preserve" height="23.249809083564358" width="31.560826810268352" class="icon-icon-0" data-fill-palette-color="accent" id="icon-0"><path d="M72.5 16.9h-45L5 44.2l45 39 45-39L72.5 16.9zM15.9 45.2h16.7l7.4 19L15.9 45.2zM33.6 40.9l-2.4-17.2L45 35.6 33.6 40.9zM68.8 23.8l-2.4 17.2L55 35.6 68.8 23.8zM67.4 45.2h16.7L60 64.2 67.4 45.2z" fill="#9966cc" data-fill-palette-color="accent"></path></svg></g></svg></g><g><rect width="173.97958659486582" height="2.022857478976177" y="20.22695160458818" x="221.5404134051342" fill="#9966cc" data-fill-palette-color="accent"></rect><rect width="173.97958659486582" height="2.022857478976177" y="20.22695160458818" x="0" fill="#9966cc" data-fill-palette-color="accent"></rect><rect width="173.97958659486582" height="2.022857478976177" y="16.181236646635828" x="221.5404134051342" fill="#9966cc" data-fill-palette-color="accent"></rect><rect width="173.97958659486582" height="2.022857478976177" y="16.181236646635828" x="0" fill="#9966cc" data-fill-palette-color="accent"></rect></g></svg></g></svg></g></svg></g><defs></defs></svg><rect width="395.52" height="247.2" fill="none" stroke="none" visibility="hidden"></rect></g></svg></g></svg>